HIERARCHY
ROOT Hips
{
 OFFSET 0.000000 0.000000 0.000000
 CHANNELS 6 Xposition Yposition Zposition Yrotation Xrotation Zrotation
 JOINT Chest
 {
  OFFSET 0.000000 9.857222 0.000240
  CHANNELS 3 Yrotation Xrotation Zrotation
  JOINT Chest2
  {
   OFFSET 0.000000 10.876940 -0.000436
   CHANNELS 3 Yrotation Xrotation Zrotation
   JOINT Chest3
   {
    OFFSET 0.000000 9.827798 0.000000
    CHANNELS 3 Yrotation Xrotation Zrotation
    JOINT Chest4
    {
     OFFSET 0.000000 9.827798 0.000000
     CHANNELS 3 Yrotation Xrotation Zrotation
     JOINT Neck
     {
      OFFSET 0.000000 13.831992 0.000000
      CHANNELS 3 Yrotation Xrotation Zrotation
      JOINT Head
      {
       OFFSET 0.000000 9.147643 -0.001036
       CHANNELS 3 Yrotation Xrotation Zrotation
       End Site
       {
        OFFSET 0.000000 17.515799 -0.000541
       }
      }
     }
     JOINT RightCollar
     {
      OFFSET -3.001579 7.717577 0.000000
      CHANNELS 3 Yrotation Xrotation Zrotation
      JOINT RightShoulder
      {
       OFFSET -14.002642 0.000000 0.000000
       CHANNELS 3 Yrotation Xrotation Zrotation
       JOINT RightElbow
       {
        OFFSET -30.053852 0.000000 0.000000
        CHANNELS 3 Yrotation Xrotation Zrotation
        JOINT RightWrist
        {
         OFFSET -24.564923 0.000000 -0.000000
         CHANNELS 3 Yrotation Xrotation Zrotation
         End Site
         {
          OFFSET -18.334355 0.000000 0.000000
         }
        }
       }
      }
     }
     JOINT LeftCollar
     {
      OFFSET 3.001579 7.717577 0.000000
      CHANNELS 3 Yrotation Xrotation Zrotation
      JOINT LeftShoulder
      {
       OFFSET 14.002642 0.000000 0.000000
       CHANNELS 3 Yrotation Xrotation Zrotation
       JOINT LeftElbow
       {
        OFFSET 30.053852 0.000000 0.000000
        CHANNELS 3 Yrotation Xrotation Zrotation
        JOINT LeftWrist
        {
         OFFSET 24.564923 0.000000 -0.000000
         CHANNELS 3 Yrotation Xrotation Zrotation
         End Site
         {
          OFFSET 18.334355 0.000000 0.000000
         }
        }
       }
      }
     }
    }
   }
  }
 }
 JOINT RightHip
 {
  OFFSET -8.003235 -0.001175 -0.000120
  CHANNELS 3 Yrotation Xrotation Zrotation
  JOINT RightKnee
  {
   OFFSET 0.000000 -41.759727 0.000113
   CHANNELS 3 Yrotation Xrotation Zrotation
   JOINT RightAnkle
   {
    OFFSET 0.000000 -40.728748 0.000159
    CHANNELS 3 Yrotation Xrotation Zrotation
    JOINT RightToe
    {
     OFFSET 0.000000 -6.515296 14.732841
     CHANNELS 3 Yrotation Xrotation Zrotation
     End Site
     {
      OFFSET 0.000000 -1.502839 6.412115
     }
    }
   }
  }
 }
 JOINT LeftHip
 {
  OFFSET 8.003235 -0.001175 -0.000120
  CHANNELS 3 Yrotation Xrotation Zrotation
  JOINT LeftKnee
  {
   OFFSET 0.000000 -41.759727 0.000113
   CHANNELS 3 Yrotation Xrotation Zrotation
   JOINT LeftAnkle
   {
    OFFSET 0.000000 -40.728748 0.000159
    CHANNELS 3 Yrotation Xrotation Zrotation
    JOINT LeftToe
    {
     OFFSET 0.000000 -6.515296 14.732841
     CHANNELS 3 Yrotation Xrotation Zrotation
     End Site
     {
      OFFSET 0.000000 -1.502839 6.412115
     }
    }
   }
  }
 }
}
MOTION
Frames: 8
Frame Time: 0.016667
-4.757042 47.933904 74.001391 -175.671238 81.631962 -155.287671 -0.418293 -9.595360 4.415627 -0.095472 -4.259918 1.946839 -0.095472 -4.259918 1.946839 -0.057979 -3.195281 1.458789 2.672375 27.849526 0.717748 4.604885 15.544112 0.728328 10.904205 7.200909 4.902458 69.647601 24.758979 39.532604 14.401297 32.929926 -35.039472 -14.820017 17.804741 -65.486584 -11.436928 8.528583 -13.725446 -26.521816 16.432093 -9.250121 -48.879833 10.441423 16.126631 1.869548 22.922087 67.543848 -8.348634 -24.462223 1.105894 -15.751280 4.452142 -9.357040 -31.058068 -17.126117 3.900252 0.514326 0.634329 0.328581 -30.953652 -17.668673 12.273321 3.972962 -0.053160 -12.139675 -22.049764 -45.047518 -17.795634 0.274209 0.302297 0.223756
-5.116828 48.225266 73.448395 -173.206579 82.301474 -152.740364 -0.566229 -10.007288 4.505179 -0.151420 -4.443371 1.981737 -0.151420 -4.443371 1.981737 -0.099075 -3.333061 1.484454 2.645339 28.581318 0.655041 4.569787 16.904213 0.645279 11.287170 7.380971 4.703441 71.389820 23.095306 39.264442 12.024082 31.442405 -31.626803 -13.619530 17.803021 -66.171954 -11.338847 8.959807 -14.096636 -28.720926 16.906293 -8.015327 -45.005760 9.553343 13.010385 2.149399 22.511522 68.208490 -8.033483 -24.364307 1.045226 -15.845287 4.524577 -9.521823 -31.106463 -16.911282 3.347978 0.488913 0.590700 0.349428 -30.843358 -17.521644 12.260705 3.861167 -0.074703 -12.322584 -21.872237 -44.735993 -18.275181 0.316031 0.325410 0.279972
-5.176407 48.255721 72.991778 -170.437689 82.931046 -149.937969 -0.615695 -10.485030 4.470655 -0.166000 -4.653903 1.946793 -0.166000 -4.653903 1.946793 -0.109579 -3.490998 1.458024 2.619531 29.297807 0.731739 4.510606 18.231639 0.808771 11.226437 8.276134 4.769085 73.146598 20.986264 38.733194 8.858841 30.216200 -28.632060 -12.398583 17.786037 -67.008114 -11.412394 9.573152 -14.126346 -30.557275 17.011320 -6.716147 -41.608707 9.152596 9.352405 2.551377 22.175043 69.014983 -7.878567 -24.200525 1.070413 -15.849543 4.539672 -9.620974 -31.153824 -16.658579 2.824615 0.457891 0.537897 0.347983 -30.845426 -17.321105 12.323570 3.890272 -0.030441 -12.446701 -21.933975 -44.322621 -18.581399 0.287231 0.249515 0.289963
-5.112476 48.085487 72.456745 -167.498184 83.527166 -146.953062 -0.619736 -11.011317 4.399107 -0.164987 -4.890476 1.906891 -0.164987 -4.890476 1.906891 -0.108374 -3.668414 1.427976 2.560241 30.027384 0.809848 4.394244 19.583058 0.980703 10.780411 9.497874 4.767223 75.579102 19.346231 38.362323 5.034544 28.413255 -26.089207 -11.177581 17.764324 -67.847220 -11.736420 10.528819 -14.188438 -32.361485 17.007379 -5.529459 -38.064880 9.079453 5.990968 3.042020 21.905100 69.760295 -7.808027 -24.014276 1.101942 -15.792102 4.563176 -9.720096 -31.182540 -16.564366 2.274766 0.467574 0.554015 0.369799 -30.942516 -17.123520 12.347556 3.682863 -0.041524 -12.534076 -21.625399 -43.945103 -18.914896 0.238661 0.204418 0.284002
-4.905387 47.697756 71.997594 -163.437472 84.048899 -142.890911 -0.584635 -11.634554 4.378793 -0.147372 -5.156338 1.867933 -0.147372 -5.156338 1.867933 -0.094658 -3.867747 1.398756 2.499290 30.852963 0.892015 4.277545 21.112844 1.162146 10.333464 10.826352 4.760138 77.807513 17.706841 37.539911 1.204796 26.834204 -23.116533 -10.018635 17.817912 -68.683166 -12.305535 11.783706 -14.378417 -34.726068 18.185592 -5.222905 -33.748320 8.711667 4.177728 3.622641 21.558375 70.495555 -7.768791 -23.807765 1.167798 -15.778866 4.565144 -9.752864 -31.148312 -16.428471 1.720840 0.510667 0.542440 0.400034 -31.074654 -16.888124 12.401147 3.351596 -0.059467 -12.531547 -21.156749 -43.593368 -19.273688 0.243730 0.123149 0.303996
-4.623306 47.096916 71.591027 -158.047884 84.507982 -137.454037 -0.487888 -12.340775 4.228651 -0.096688 -5.441837 1.797622 -0.096688 -5.441837 1.797622 -0.056412 -4.081704 1.346338 2.472440 31.750173 1.069748 4.210138 22.773740 1.508767 9.955021 12.811850 4.949407 80.135595 16.549183 36.447005 -2.800405 24.837299 -20.403429 -9.111971 17.897475 -69.511374 -13.212525 13.601386 -14.650825 -36.512207 18.749336 -4.270893 -30.036162 8.270089 1.942979 4.097439 21.406513 71.169932 -7.664376 -23.565817 1.183372 -15.747698 4.569015 -9.752662 -31.081347 -16.408750 1.088952 0.599957 0.548487 0.450632 -31.212660 -16.659056 12.315261 3.038960 -0.149206 -12.526788 -20.477083 -43.227945 -19.735103 0.247157 0.094529 0.329474
-4.308054 46.344988 71.275213 -152.356004 84.861130 -131.731602 -0.400774 -12.967415 4.094526 -0.057854 -5.697339 1.738766 -0.057854 -5.697339 1.738766 -0.027098 -4.273210 1.302456 2.498059 32.580193 1.264390 4.237721 24.310114 1.875643 10.110498 15.104927 5.247397 82.960329 16.555894 36.065403 -7.349713 21.222767 -18.853798 -8.126213 18.215705 -70.137921 -14.297165 15.485401 -15.225798 -37.661212 19.201035 -3.058346 -26.816477 7.791744 -0.058176 4.419921 21.280485 71.772894 -7.620035 -23.350946 1.234689 -15.599757 4.555186 -9.752728 -31.043943 -16.348833 0.485652 0.647312 0.517512 0.478842 -31.311655 -16.448739 12.269789 2.914863 -0.231550 -12.583782 -20.111731 -42.774679 -20.112472 0.240730 0.013100 0.344649
-4.107466 45.484822 71.111087 -149.025172 85.102920 -128.428836 -0.315742 -13.533186 3.938572 -0.029891 -5.943723 1.666200 -0.029891 -5.943723 1.666200 -0.006142 -4.457913 1.248235 2.569328 33.272478 1.557058 4.335541 25.588752 2.406541 10.238401 16.637564 5.431454 87.025174 17.736516 37.437449 -11.955577 15.842960 -17.721430 -7.325688 18.574552 -70.799479 -15.384417 16.764442 -15.796248 -38.399663 19.228776 -2.147251 -24.247248 7.628653 -2.153240 4.332244 21.341386 72.328180 -7.782684 -23.307451 1.376072 -15.453773 4.508771 -9.701794 -30.949646 -16.135568 -0.028562 0.601043 0.392579 0.454561 -31.453317 -16.347095 12.408848 3.094629 -0.250507 -12.589857 -20.075938 -42.415142 -20.609769 0.250042 -0.080981 0.349336
